# xmcd
#
# Track frame offsets: 
#        150
#        25504
#        45781
#        69923
#        91018
#        108815
#        126052
#        152819
#        179326
#        196563
#        229592
#        245764
#        265161
#        282938
#
# Disc length: 4355 seconds
#
# Revision: 0
# Processed by: cddbd v1.5.2PL0 Copyright (c) Steve Scherf et al.
# Submitted via: ExactAudioCopy v0.95b3
#
DISCID=a211010e
DTITLE=Agnes Strange  - Theme For A Dream (1972-74)(2000 RF Rem.)  FLA
DTITLE=C
DYEAR=1900
DGENRE=
TTITLE0=Theme For A Dream
TTITLE1=Messin' Around
TTITLE2=Graveyard
TTITLE3=Rockin' In 'E'
TTITLE4=Dust In The Sunlight
TTITLE5=The Day Dreamer
TTITLE6=Book With No Cover
TTITLE7=Failure (Demo)
TTITLE8=Motorway Rebel (Demo)
TTITLE9=Children Of The Absurd (Demo)
TTITLE10=Clever Fool (Demo)
TTITLE11=Strange Flavour (Demo)
TTITLE12=Odd Man Out (Demo)
TTITLE13=Highway Blues (Demo)
EXTD=
EXTT0=
EXTT1=
EXTT2=
EXTT3=
EXTT4=
EXTT5=
EXTT6=
EXTT7=
EXTT8=
EXTT9=
EXTT10=
EXTT11=
EXTT12=
EXTT13=
PLAYORDER=
